<?xml version="1.0" standalone="no"?>
<!DOCTYPE svg PUBLIC "-//W3C//DTD SVG 1.1//EN" "http://www.w3.org/Graphics/SVG/1.1/DTD/svg11.dtd" >
<svg xmlns="http://www.w3.org/2000/svg" xmlns:xlink="http://www.w3.org/1999/xlink" version="1.1">
<metadata></metadata>
<defs>
<font id="phonetastic_sansregular" horiz-adv-x="1221" vert-adv-y="2048" >
<font-face units-per-em="2048" ascent="1536" descent="-512" />
<missing-glyph horiz-adv-x="451" />
<glyph unicode="&#xfb01;" horiz-adv-x="1215" vert-adv-y="2457" d="M37 829l16 154h156v150q0 213 55 285q70 90 255 90q88 0 191 -18l-19 -154q-79 22 -150 22q-101 0 -129 -61q-22 -47 -22 -172v-142h284l-16 -154h-268v-829h-181v829h-172zM866 1216v213l193 12v-213zM872 0v983h181v-983h-181z" />
<glyph unicode="&#xfb02;" vert-adv-y="2457" d="M37 829l16 154h156v150q0 213 55 285q70 90 255 90q88 0 191 -18l-19 -154q-79 22 -150 22q-101 0 -129 -61q-22 -47 -22 -172v-142h284l-16 -154h-268v-829h-181v829h-172zM878 0v1496l181 13v-1509h-181z" />
<glyph unicode="&#xfb03;" horiz-adv-x="1880" vert-adv-y="2457" d="M37 829l16 154h156v150q0 213 55 285q70 90 255 90q88 0 191 -18l-19 -154q-79 22 -150 22q-101 0 -129 -61q-22 -47 -22 -172v-142h239l-16 -154h-223v-829h-181v829h-172zM701 829l16 154h156v150q0 213 55 285q70 90 254 90q100 0 219 -29l-19 -153q-93 32 -178 32 q-100 0 -128 -60q-22 -51 -22 -173v-142h284l-15 -154h-269v-829h-181v829h-172zM1530 1216v213l193 12v-213zM1536 0v983h181v-983h-181z" />
<glyph unicode="&#xfb04;" horiz-adv-x="1885" vert-adv-y="2457" d="M37 829l16 154h156v150q0 213 55 285q70 90 255 90q88 0 191 -18l-19 -154q-79 22 -150 22q-101 0 -129 -61q-22 -47 -22 -172v-142h239l-16 -154h-223v-829h-181v829h-172zM701 829l16 154h156v150q0 213 55 285q70 90 254 90q100 0 219 -29l-19 -153q-93 32 -178 32 q-100 0 -128 -60q-22 -51 -22 -173v-142h284l-15 -154h-269v-829h-181v829h-172zM1542 0v1496l181 13v-1509h-181z" />
<glyph horiz-adv-x="0" vert-adv-y="0" />
<glyph horiz-adv-x="682" />
<glyph unicode=" " horiz-adv-x="451" vert-adv-y="2457" />
<glyph unicode="!" horiz-adv-x="661" vert-adv-y="2457" d="M230 0v216h203v-216h-203zM234 1489h193l-19 -1087h-155z" />
<glyph unicode="&#x22;" horiz-adv-x="547" vert-adv-y="2457" d="M30 1466h184l-23 -557h-138zM334 1466h184l-23 -557h-138z" />
<glyph unicode="#" vert-adv-y="2457" d="M134 439l18 136h176l28 218h-173l17 135h174l44 335h160l-44 -335h212l44 335h160l-44 -335h173l-17 -135h-173l-28 -218h170l-18 -136h-170l-39 -297h-161l40 297h-212l-40 -297h-160l39 297h-176zM488 575h213l27 218h-212z" />
<glyph unicode="$" vert-adv-y="2457" d="M95 62l20 177q206 -98 430 -106v536q-172 50 -236 86q-85 46 -121 116q-40 75 -40 181q0 243 199 327q75 32 198 41v174h143v-174q144 -9 288 -42l-19 -166q-148 54 -269 66v-474q168 -45 255 -100q96 -59 131 -144q29 -68 29 -164q0 -263 -193 -356q-83 -40 -222 -50 v-183h-143v180q-203 5 -450 75zM325 1056q0 -82 37 -128q37 -47 183 -87v437q-91 -10 -131 -34q-89 -52 -89 -188zM688 137q103 15 149 49q86 65 86 196q0 144 -109 199q-39 19 -126 46v-490z" />
<glyph unicode="%" horiz-adv-x="1698" vert-adv-y="2457" d="M75 1070q0 182 61 267q70 99 260 99q183 0 253 -99q61 -84 61 -267t-61 -267q-71 -99 -257 -99q-185 0 -256 99q-61 84 -61 267zM241 1070q0 -127 25 -182q30 -65 126 -65q97 0 127 65q25 54 25 182q0 126 -25 182q-30 65 -125 65q-98 0 -128 -65q-25 -55 -25 -182z M430 0l691 1407h148l-691 -1407h-148zM989 338q0 183 61 266q71 99 260 99q183 0 253 -99q61 -84 61 -267t-61 -267q-71 -99 -256 -99q-186 0 -257 99q-61 84 -61 268zM1155 337q0 -127 25 -182q30 -65 126 -65q97 0 127 65q25 55 25 182t-25 182q-30 65 -125 65 q-98 0 -128 -65q-25 -54 -25 -182z" />
<glyph unicode="&#x26;" horiz-adv-x="1405" vert-adv-y="2457" d="M98 384q0 215 135 318q55 42 172 88q-41 60 -65 102q-61 108 -61 236q0 143 72 220q82 89 265 89q175 0 262 -73q84 -72 84 -224q0 -196 -129 -296q-53 -41 -180 -94l323 -413q91 169 111 385h173q-36 -324 -174 -513l172 -210l-221 1l-74 94q-168 -123 -435 -123 q-236 0 -337 117q-93 106 -93 296zM285 393q0 -128 52 -195q61 -80 213 -80q135 0 217 35q36 16 95 58l-372 471q-89 -42 -115 -64q-90 -73 -90 -225zM454 1137q0 -83 41 -170q21 -45 57 -96q13 -19 14 -19q103 44 149 86q74 68 74 202q0 79 -32 113q-38 40 -133 40 q-94 0 -135 -41q-35 -36 -35 -115z" />
<glyph unicode="'" horiz-adv-x="269" vert-adv-y="2457" d="M41 1466h186l-23 -557h-140z" />
<glyph unicode="(" horiz-adv-x="797" vert-adv-y="2457" d="M255 593q0 558 308 955l113 -69q-234 -390 -234 -886q0 -495 234 -886l-113 -69q-308 398 -308 955z" />
<glyph unicode=")" horiz-adv-x="797" vert-adv-y="2457" d="M121 -293q234 391 234 886q0 497 -234 886l113 69q308 -397 308 -955q0 -557 -308 -955z" />
<glyph unicode="*" horiz-adv-x="1064" vert-adv-y="2457" d="M124 1208l49 169l291 -118l-22 337h180l-22 -337l291 118l49 -169l-296 -70l205 -297l-160 -86l-157 296l-157 -296l-160 86l205 297z" />
<glyph unicode="+" vert-adv-y="2457" d="M120 575l11 147h393v429h172v-429h405l-12 -147h-393v-428h-172v428h-404z" />
<glyph unicode="," horiz-adv-x="606" vert-adv-y="2457" d="M168 -273l59 499h216l-113 -499h-162z" />
<glyph unicode="-" horiz-adv-x="678" vert-adv-y="2457" d="M68 572l13 154h528l-13 -154h-528z" />
<glyph unicode="." horiz-adv-x="606" vert-adv-y="2457" d="M195 0v227h215v-227h-215z" />
<glyph unicode="/" horiz-adv-x="661" vert-adv-y="2457" d="M27 0l427 1407h180l-427 -1407h-180z" />
<glyph unicode="0" vert-adv-y="2457" d="M111 709q0 361 96 533q108 194 403 194q294 0 403 -194q96 -171 96 -538q0 -368 -96 -539q-109 -194 -403 -194t-403 194q-96 171 -96 544zM304 709q0 -292 49 -420q59 -157 257 -157q197 0 258 157q48 127 48 414t-48 415q-60 157 -258 157t-257 -157q-49 -128 -49 -409 z" />
<glyph unicode="1" vert-adv-y="2457" d="M166 0v165h404v1068l-336 -82l-35 133l414 131h138v-1250h379v-165h-964z" />
<glyph unicode="2" vert-adv-y="2457" d="M135 0v126l440 503q107 123 170 227q62 102 62 207q0 99 -44 149q-56 64 -223 64q-166 0 -340 -54l-20 167q206 48 369 48q254 0 361 -111q83 -86 83 -255q0 -153 -77 -274q-69 -109 -214 -273l-316 -359h664l-13 -165h-902z" />
<glyph unicode="3" vert-adv-y="2457" d="M111 17l20 169q170 -54 358 -54q206 0 272 67q56 58 56 215q0 160 -71 210q-57 40 -215 40h-248v157h247q141 0 196 51q54 49 54 156q0 149 -58 198t-216 49q-156 0 -326 -53l-20 168q184 46 357 46q275 0 376 -126q74 -90 74 -276q0 -150 -64 -219q-27 -30 -85 -62 q63 -27 96 -59q90 -88 90 -293q0 -233 -114 -333q-112 -97 -396 -97q-189 0 -383 46z" />
<glyph unicode="4" vert-adv-y="2457" d="M89 317v136l231 512q47 103 67 188q15 64 15 150v124h179v-140q0 -110 -26 -203q-22 -75 -79 -202l-184 -409h473v620h177v-620h209l-12 -156h-197v-317h-177v317h-676z" />
<glyph unicode="5" vert-adv-y="2457" d="M158 16l20 169q182 -53 387 -53q131 0 195 26q78 32 106 123q18 57 18 158q0 162 -47 224q-51 68 -200 68q-125 0 -203 -38q-36 -17 -95 -58l-130 26l18 746h765l-5 -165h-586l-13 -414q120 64 281 64q234 0 328 -132q74 -103 74 -324q0 -234 -98 -348q-62 -71 -178 -98 q-85 -19 -220 -19q-219 0 -417 45z" />
<glyph unicode="6" vert-adv-y="2457" d="M158 562v155q0 238 23 378q22 134 94 217q106 124 383 124q133 0 318 -29l-19 -167q-176 37 -297 37q-196 0 -259 -97q-60 -91 -60 -287v-61q149 98 328 98q230 0 329 -127q88 -112 88 -354q0 -236 -90 -347q-106 -131 -375 -131q-276 0 -378 140q-61 83 -77 232 q-8 69 -8 219zM342 489q0 -199 46 -269q58 -88 234 -88q172 0 228 81q48 70 48 229q0 171 -48 243q-56 84 -218 84q-114 0 -207 -52q-41 -23 -83 -56v-172z" />
<glyph unicode="7" vert-adv-y="2457" d="M140 1242l12 165h891v-108l-513 -1299h-211l516 1242h-695z" />
<glyph unicode="8" vert-adv-y="2457" d="M112 374q0 282 201 363q-150 84 -150 311q0 215 109 303q104 85 338 85t338 -85q109 -88 109 -303q0 -226 -150 -311q201 -81 201 -362q0 -215 -107 -307q-112 -97 -391 -97t-391 97q-107 92 -107 306zM301 391q0 -140 57 -197q64 -64 249 -64q191 0 255 64q57 57 57 197 q0 139 -57 197q-63 63 -252 63q-188 0 -252 -63q-57 -57 -57 -197zM352 1042q0 -126 49 -177q54 -56 206 -56q157 0 211 56q49 50 49 177t-49 179q-53 56 -208 56q-156 0 -209 -56q-49 -51 -49 -179z" />
<glyph unicode="9" vert-adv-y="2457" d="M135 980q0 225 89 331q106 125 374 125q192 0 295 -63q115 -71 149 -225q21 -99 21 -302v-182q0 -228 -23 -364q-22 -130 -94 -210q-107 -119 -379 -119q-154 0 -367 43l19 166q204 -50 343 -50q195 0 258 91q60 85 60 267v131q-145 -98 -329 -98q-229 0 -328 122 q-88 107 -88 337zM323 985q0 -158 48 -225q57 -78 215 -78q120 0 211 52q35 20 82 57v128q0 198 -46 268q-58 88 -235 88q-171 0 -227 -76q-48 -63 -48 -214z" />
<glyph unicode=":" horiz-adv-x="606" vert-adv-y="2457" d="M240 0v227h215v-227h-215zM240 753v227h215v-227h-215z" />
<glyph unicode=";" horiz-adv-x="606" vert-adv-y="2457" d="M182 -273l59 499h216l-113 -499h-162zM241 753v227h215v-227h-215z" />
<glyph unicode="&#x3c;" vert-adv-y="2457" d="M156 591v116l871 450v-170l-654 -338l654 -338v-170z" />
<glyph unicode="=" vert-adv-y="2457" d="M148 414l12 147h912l-12 -147h-912zM148 737l12 147h912l-12 -147h-912z" />
<glyph unicode="&#x3e;" vert-adv-y="2457" d="M195 141v170l654 338l-654 338v170l871 -450v-116z" />
<glyph unicode="?" horiz-adv-x="852" vert-adv-y="2457" d="M141 1457q143 47 311 47q196 0 281 -89q70 -73 70 -215q0 -120 -49 -203q-27 -46 -133 -170q-82 -96 -104 -145q-23 -52 -23 -140v-142h-167v157q0 118 29 188q24 60 127 177q79 89 103 137q28 54 28 123q0 88 -36 128q-42 48 -158 48q-105 0 -255 -47zM311 0v216h203 v-216h-203z" />
<glyph unicode="@" horiz-adv-x="1750" vert-adv-y="2457" d="M113 532q0 488 202 713q184 204 576 204q410 0 592 -199q154 -168 154 -454q0 -261 -123 -412q-122 -150 -320 -150q-93 0 -145 40q-30 22 -51 70q-103 -106 -245 -106q-125 0 -177 71q-45 63 -45 177q0 125 40 274t106 207q64 57 180 57q117 0 208 -79l29 77h134 l-71 -496q-12 -79 -12 -99q0 -71 77 -71q121 0 189 145q62 133 62 310q0 232 -145 364q-146 131 -435 131q-186 0 -303 -57q-309 -150 -309 -696q0 -213 44 -329q57 -151 225 -211q119 -43 319 -43q261 0 553 58l16 -142q-114 -21 -170 -30q-191 -29 -391 -29 q-266 0 -416 60q-223 88 -299 296q-49 135 -49 349zM708 486q0 -61 20 -92t71 -31q94 0 169 105l54 370q-62 61 -132 61q-89 0 -124 -104q-24 -70 -43 -176q-15 -82 -15 -133z" />
<glyph unicode="A" horiz-adv-x="1273" vert-adv-y="2457" d="M-26 0l580 1407h167l578 -1407h-203l-144 370h-635l-144 -370h-199zM373 520h523l-262 680z" />
<glyph unicode="B" horiz-adv-x="1271" vert-adv-y="2457" d="M171 0v1407h514q248 0 340 -89q90 -86 90 -271q0 -145 -60 -225q-30 -39 -81 -69q77 -29 117 -75q83 -93 83 -275q0 -228 -120 -324q-66 -52 -172 -69q-60 -10 -166 -10h-545zM352 156h342q177 0 231 46q38 32 51 87q11 43 11 120q0 94 -20 142q-34 84 -143 103 q-66 11 -170 11h-302v-509zM352 820h299q167 0 218 38q61 45 61 173q0 143 -68 187q-52 33 -211 33h-299v-431z" />
<glyph unicode="C" horiz-adv-x="1100" vert-adv-y="2457" d="M116 684q0 385 130 564q138 188 472 188q170 0 314 -47l-20 -168q-131 55 -290 55q-255 0 -337 -153q-75 -141 -75 -426q0 -295 76 -425q82 -141 338 -141q165 0 308 59l20 -169q-145 -50 -330 -50q-349 0 -479 181q-127 175 -127 532z" />
<glyph unicode="D" horiz-adv-x="1358" vert-adv-y="2457" d="M171 0v1407h499q200 0 308 -54q148 -73 212 -278q51 -164 51 -371q0 -343 -127 -530q-81 -119 -235 -155q-82 -19 -209 -19h-499zM355 159h274q163 0 242 40q106 54 146 215q33 135 33 290q0 274 -84 414q-54 92 -176 118q-54 12 -161 12h-274v-1089z" />
<glyph unicode="E" horiz-adv-x="1166" vert-adv-y="2457" d="M171 0v1407h895l-16 -159h-695v-434h572l-15 -159h-557v-496h733l-14 -159h-903z" />
<glyph unicode="F" horiz-adv-x="1080" vert-adv-y="2457" d="M171 0v1407h849l-13 -159h-652v-450h535l-12 -159h-523v-639h-184z" />
<glyph unicode="G" horiz-adv-x="1330" vert-adv-y="2457" d="M130 678q0 376 123 554q141 204 516 204q209 0 382 -49l-20 -169q-155 58 -362 58q-278 0 -368 -162q-77 -136 -77 -432q0 -298 85 -424q86 -127 346 -127q143 0 246 28v407h-348l12 152h520v-682q-221 -65 -440 -65q-368 0 -498 188q-117 168 -117 519z" />
<glyph unicode="H" horiz-adv-x="1385" vert-adv-y="2457" d="M171 0v1407h184v-599h675v599h184v-1407h-184v649h-675v-649h-184z" />
<glyph unicode="I" horiz-adv-x="551" vert-adv-y="2457" d="M183 0v1407h184v-1407h-184z" />
<glyph unicode="J" horiz-adv-x="921" vert-adv-y="2457" d="M0 23l39 169q135 -61 298 -61q108 0 161 59q45 50 58 183q9 82 9 216v818h184v-809q0 -316 -52 -440q-41 -98 -124 -140q-93 -47 -248 -47q-165 0 -325 52z" />
<glyph unicode="K" horiz-adv-x="1214" vert-adv-y="2457" d="M171 0v1407h184v-607h152l453 607h205l-510 -670l624 -737h-222l-550 654h-152v-654h-184z" />
<glyph unicode="L" horiz-adv-x="1021" vert-adv-y="2457" d="M171 0v1407h184v-1248h672l-13 -159h-843z" />
<glyph unicode="M" horiz-adv-x="1736" vert-adv-y="2457" d="M133 0l97 1407h191l447 -1148l446 1148h191l98 -1407h-174l-68 1102l-429 -1102h-128l-430 1102l-68 -1102h-173z" />
<glyph unicode="N" horiz-adv-x="1386" vert-adv-y="2457" d="M171 0v1407h177l694 -1057v1057h173v-1407h-145l-726 1125v-1125h-173z" />
<glyph unicode="O" horiz-adv-x="1431" vert-adv-y="2457" d="M119 709q0 373 120 542q133 185 476 185q351 0 484 -195q112 -165 112 -537q0 -379 -116 -543q-134 -190 -479 -190q-340 0 -474 182q-123 167 -123 556zM313 709q0 -295 63 -421q79 -157 339 -157t339 157q63 126 63 416q0 288 -63 415q-79 157 -339 157t-339 -157 q-63 -126 -63 -410z" />
<glyph unicode="P" horiz-adv-x="1200" vert-adv-y="2457" d="M171 0v1407h472q265 0 368 -101q108 -105 108 -355t-108 -355q-103 -101 -368 -101h-288v-495h-184zM355 654h259q198 0 257 67q60 68 60 230t-60 230q-39 45 -131 59q-55 8 -126 8h-259v-594z" />
<glyph unicode="Q" horiz-adv-x="1431" vert-adv-y="2457" d="M119 705q0 373 114 538q133 193 483 193q344 0 478 -188q118 -166 118 -544q0 -267 -57 -426q-96 -269 -439 -301q2 -123 20 -170q21 -53 81 -68q30 -7 102 -7h91v-135h-104q-164 0 -238 36q-94 46 -119 199q-8 50 -11 143q-116 9 -189 34q-208 70 -279 287 q-51 158 -51 409zM313 709q0 -294 63 -420q79 -157 340 -157q260 0 339 157q63 126 63 415q0 288 -63 415q-79 157 -339 157q-261 0 -340 -157q-63 -126 -63 -410z" />
<glyph unicode="R" horiz-adv-x="1245" vert-adv-y="2457" d="M171 0v1407h443q173 0 277 -27q238 -61 238 -389q0 -211 -101 -316q-52 -54 -151 -81q-16 -4 -50 -12q28 -25 40 -41q10 -14 53 -86l275 -455h-213l-243 428q-44 75 -85 100q-36 22 -123 22h-176v-550h-184zM355 707h267q111 0 181 18q135 35 135 252q0 150 -59 210 q-42 41 -132 54q-54 7 -125 7h-267v-541z" />
<glyph unicode="S" horiz-adv-x="1146" vert-adv-y="2457" d="M48 47l20 179q229 -91 476 -91q164 0 240 51q86 58 86 193q0 115 -60 170q-35 31 -94 52q-66 23 -155 49q-176 51 -238 78q-129 58 -175 144q-40 75 -40 179q0 384 462 384q176 0 366 -42l-18 -168q-198 50 -341 50q-156 0 -223 -55q-61 -52 -61 -164q0 -115 76 -159 q45 -27 113 -46q66 -19 137 -39q179 -50 248 -88q121 -65 162 -166q29 -69 29 -166q0 -202 -110 -309q-66 -63 -159 -85q-109 -27 -243 -27q-193 0 -373 43q-50 12 -125 33z" />
<glyph unicode="T" horiz-adv-x="1179" vert-adv-y="2457" d="M47 1248l12 159h1072l-12 -159h-438v-1248h-184v1248h-450z" />
<glyph unicode="U" horiz-adv-x="1314" vert-adv-y="2457" d="M163 444v963h184v-934q0 -193 54 -258q69 -84 256 -84q204 0 268 100q42 64 42 242v934h184v-963q0 -140 -22 -219q-39 -142 -179 -204q-113 -50 -293 -50q-307 0 -419 143q-75 95 -75 330z" />
<glyph unicode="V" horiz-adv-x="1171" vert-adv-y="2457" d="M7 1407h197l383 -1148l384 1148h194l-498 -1407h-163z" />
<glyph unicode="W" horiz-adv-x="1829" vert-adv-y="2457" d="M39 1407h189l285 -1080l327 1080h152l329 -1080l284 1080h187l-385 -1407h-156l-336 1117l-335 -1117h-157z" />
<glyph unicode="X" horiz-adv-x="1177" vert-adv-y="2457" d="M-32 0l502 758l-402 649h198l327 -535l320 535h206l-436 -670l463 -737h-202l-384 621l-385 -621h-207z" />
<glyph unicode="Y" horiz-adv-x="1142" vert-adv-y="2457" d="M-17 1407h207l384 -713l386 713h200l-496 -872v-535h-184v535z" />
<glyph unicode="Z" horiz-adv-x="1143" vert-adv-y="2457" d="M25 121l788 1127h-701l12 159h904l16 -122l-787 -1126h812l-12 -159h-1025z" />
<glyph unicode="[" horiz-adv-x="797" vert-adv-y="2457" d="M289 -349v1896h385v-128h-204v-1641h204v-127h-385z" />
<glyph unicode="\" horiz-adv-x="661" vert-adv-y="2457" d="M27 1407h180l427 -1407h-180z" />
<glyph unicode="]" horiz-adv-x="797" vert-adv-y="2457" d="M123 -222h204v1641h-204v128h385v-1896h-385v127z" />
<glyph unicode="^" vert-adv-y="2457" d="M145 738l425 693h81l425 -693h-210l-255 470l-256 -470h-210z" />
<glyph unicode="_" horiz-adv-x="902" vert-adv-y="2457" d="M-86 -226h1073v-134h-1073v134z" />
<glyph unicode="`" horiz-adv-x="947" vert-adv-y="2457" d="M256 1482h220l103 -331h-130z" />
<glyph unicode="a" horiz-adv-x="1072" vert-adv-y="2457" d="M85 260q0 227 130 291q79 39 236 51q34 3 205 9l81 3v32q0 125 -27 160q-42 56 -191 56q-168 0 -332 -62l-23 156q194 56 375 56q279 0 348 -142q24 -51 29 -131q2 -30 2 -127v-612h-149l-16 64q-51 -36 -91 -53q-96 -40 -237 -40q-194 0 -272 73q-68 65 -68 216z M271 283q0 -102 52 -133q44 -27 144 -27q163 0 270 101v253q-287 -6 -350 -23q-78 -22 -99 -72q-17 -42 -17 -99z" />
<glyph unicode="b" horiz-adv-x="1142" vert-adv-y="2457" d="M163 0v1496l181 13v-604q56 41 95 60q93 47 222 47q218 0 302 -139q65 -108 65 -379q0 -306 -86 -414q-87 -109 -283 -109q-190 0 -333 107l-9 -78h-154zM344 236q40 -36 74 -56q87 -54 206 -54q136 0 180 85q38 74 38 284q0 199 -37 274q-43 88 -183 88q-117 0 -199 -57 q-38 -26 -79 -70v-494z" />
<glyph unicode="c" horiz-adv-x="936" vert-adv-y="2457" d="M114 484q0 325 127 435q107 93 314 93q139 0 305 -46l-19 -161q-133 52 -273 52q-179 0 -229 -100q-38 -75 -38 -265q0 -215 49 -287q55 -81 221 -81q147 0 290 58l18 -162q-156 -51 -323 -51q-242 0 -341 106q-101 109 -101 409z" />
<glyph unicode="d" horiz-adv-x="1142" vert-adv-y="2457" d="M115 497q0 176 25 270q66 245 359 245q164 0 300 -95v579l181 13v-1509h-154l-9 78q-145 -107 -333 -107q-208 0 -295 124q-74 105 -74 402zM301 490q0 -223 48 -295q45 -69 173 -69q120 0 199 51q34 21 78 59v512q-38 35 -66 53q-85 56 -200 56q-152 0 -198 -106 q-34 -77 -34 -261z" />
<glyph unicode="e" horiz-adv-x="1099" vert-adv-y="2457" d="M114 485q0 290 91 403q102 126 353 126q330 0 403 -233q32 -101 32 -313v-13h-697q7 -140 28 -200q28 -79 105 -108q63 -24 181 -24q160 0 325 48l22 -157q-178 -43 -360 -43q-190 0 -290 47q-129 60 -169 223q-24 97 -24 244zM299 587h514q-5 109 -31 170 q-48 109 -224 109q-168 0 -220 -96q-33 -62 -39 -183z" />
<glyph unicode="f" horiz-adv-x="684" vert-adv-y="2457" d="M37 829l16 154h156v150q0 213 55 285q70 90 255 90q88 0 191 -18l-19 -154q-79 22 -150 22q-101 0 -129 -61q-22 -47 -22 -172v-142h284l-16 -154h-268v-829h-181v829h-172z" />
<glyph unicode="g" horiz-adv-x="1142" vert-adv-y="2457" d="M114 490q0 186 27 282q67 240 354 240q181 0 325 -108l11 79h149v-878q0 -193 -15 -296q-19 -126 -92 -207q-107 -118 -383 -118q-154 0 -292 38l23 164q137 -50 273 -50q223 0 277 126q27 63 27 233v72q-132 -96 -315 -96q-208 0 -294 121q-75 107 -75 398zM300 491 q0 -233 53 -303q46 -62 167 -62q117 0 199 50q28 17 80 60v512q-7 5 -71 57q-28 23 -88 38q-53 14 -108 14q-144 0 -192 -92q-40 -76 -40 -274z" />
<glyph unicode="h" horiz-adv-x="1177" vert-adv-y="2457" d="M163 0v1496l181 6v-620q177 130 380 130q218 0 272 -138q26 -66 26 -228v-646h-181v621q0 138 -19 175q-32 61 -142 61q-162 0 -336 -151v-706h-181z" />
<glyph unicode="i" horiz-adv-x="507" vert-adv-y="2457" d="M157 1216v213l193 12v-213zM163 0v983h181v-983h-181z" />
<glyph unicode="j" horiz-adv-x="514" vert-adv-y="2457" d="M-118 -494l21 148q64 -17 109 -17q114 0 138 126q20 107 20 309v911h181v-882q0 -302 -33 -419q-28 -100 -110 -155q-63 -43 -168 -43q-77 0 -158 22zM164 1216v213l193 12v-213z" />
<glyph unicode="k" horiz-adv-x="1033" vert-adv-y="2457" d="M163 0v1496l181 13v-870h104l341 344h219l-412 -404l463 -579h-213l-391 496h-111v-496h-181z" />
<glyph unicode="l" horiz-adv-x="507" vert-adv-y="2457" d="M163 0v1496l181 13v-1509h-181z" />
<glyph unicode="m" horiz-adv-x="1757" vert-adv-y="2457" d="M163 0v983h162l9 -107q166 136 354 136q209 0 266 -144q171 144 365 144q206 0 258 -138q25 -65 25 -228v-646h-181v621q0 136 -17 173q-30 63 -135 63q-149 0 -296 -152v-705h-181v628q0 131 -16 166q-30 63 -132 63q-105 0 -218 -81q-51 -37 -82 -71v-705h-181z" />
<glyph unicode="n" horiz-adv-x="1177" vert-adv-y="2457" d="M163 0v983h162l11 -107q183 136 387 136q219 0 273 -138q26 -66 26 -228v-646h-181v621q0 137 -18 174q-31 62 -141 62q-170 0 -338 -152v-705h-181z" />
<glyph unicode="o" horiz-adv-x="1142" vert-adv-y="2457" d="M114 497q0 254 68 365q92 150 389 150t390 -150q68 -110 68 -370q0 -261 -68 -371q-93 -150 -389 -150q-297 0 -390 150q-68 110 -68 376zM301 495q0 -203 43 -280q50 -89 228 -89q177 0 227 89q43 77 43 277q0 198 -43 276q-49 89 -227 89t-228 -89q-43 -77 -43 -273z " />
<glyph unicode="p" horiz-adv-x="1144" vert-adv-y="2457" d="M165 -492v1475h149l13 -92q58 46 99 68q101 53 237 53q218 0 302 -139q65 -109 65 -379q0 -306 -86 -414q-87 -109 -282 -109q-178 0 -316 96v-559h-181zM346 236q44 -38 79 -59q79 -50 197 -50q83 0 126 23q62 35 82 141q14 80 14 204q0 199 -37 274q-43 88 -184 88 q-115 0 -194 -54q-37 -25 -83 -74v-493z" />
<glyph unicode="q" horiz-adv-x="1140" vert-adv-y="2457" d="M114 498q0 175 25 268q67 246 366 246q178 0 314 -109l11 80h149v-1475h-181v559q-138 -96 -315 -96q-207 0 -294 123q-75 104 -75 404zM300 491q0 -224 48 -296q45 -69 170 -69q124 0 216 61q28 18 64 49v512q-42 39 -69 57q-74 52 -191 52q-159 0 -205 -110 q-33 -78 -33 -256z" />
<glyph unicode="r" horiz-adv-x="770" vert-adv-y="2457" d="M163 0v983h162l10 -108q118 128 280 128q69 0 133 -18l-17 -159q-63 19 -121 19q-100 0 -178 -60q-38 -28 -88 -86v-699h-181z" />
<glyph unicode="s" horiz-adv-x="954" vert-adv-y="2457" d="M67 29l20 163q193 -71 391 -71q128 0 175 43q40 37 40 111q0 63 -37 93q-22 18 -74 32q-8 2 -117 26q-197 43 -276 95q-86 56 -86 188q0 85 32 158q62 145 313 145q166 0 340 -49l-20 -157q-155 54 -304 54q-112 0 -150 -35q-34 -32 -34 -93q0 -72 48 -103q31 -20 82 -31 l118 -27q175 -40 248 -86q94 -59 94 -194q0 -154 -76 -229q-93 -91 -323 -91q-142 0 -292 28q-63 12 -112 30z" />
<glyph unicode="t" horiz-adv-x="788" vert-adv-y="2457" d="M38 827l16 156h158l11 258l170 11v-269h344l-16 -156h-328v-467q0 -138 15 -180q21 -57 117 -57q95 0 223 52l20 -153q-158 -51 -302 -51q-166 0 -221 103q-33 62 -33 217v536h-174z" />
<glyph unicode="u" horiz-adv-x="1133" vert-adv-y="2457" d="M155 337v646h181v-621q0 -139 19 -176q30 -61 134 -61q101 0 206 69q55 36 95 78v711h181v-983h-162l-9 101q-165 -131 -355 -131q-211 0 -265 138q-25 66 -25 229z" />
<glyph unicode="v" horiz-adv-x="944" vert-adv-y="2457" d="M7 983h195l270 -760l270 760h195l-371 -983h-188z" />
<glyph unicode="w" horiz-adv-x="1527" vert-adv-y="2457" d="M52 983h192l201 -732l259 732h119l259 -732l201 732h192l-301 -983h-159l-251 708l-251 -708h-160z" />
<glyph unicode="x" horiz-adv-x="1011" vert-adv-y="2457" d="M-18 0l409 515l-346 468h209l257 -347l248 347h215l-371 -471l380 -512h-209l-292 393l-284 -393h-216z" />
<glyph unicode="y" horiz-adv-x="1121" vert-adv-y="2457" d="M154 337v646h181v-621q0 -138 18 -174q30 -63 135 -63q140 0 288 132v726h181v-878q0 -185 -14 -289q-25 -185 -148 -262q-111 -70 -324 -70q-171 0 -312 42l24 163q147 -53 288 -53q224 0 277 126q27 63 27 234v84q-72 -45 -104 -62q-95 -48 -225 -48q-213 0 -266 138 q-26 66 -26 229z" />
<glyph unicode="z" horiz-adv-x="938" vert-adv-y="2457" d="M26 114l591 713h-542l16 156h754l16 -116l-588 -711h610l-16 -156h-838z" />
<glyph unicode="{" horiz-adv-x="797" vert-adv-y="2457" d="M143 596v106h36q75 -1 104 32q21 23 27 71q3 26 3 135v200q0 159 12 229q20 113 103 150q62 28 169 28h122v-117h-66q-111 0 -138 -56q-21 -45 -21 -232v-170q0 -135 -3.5 -176t-16.5 -72q-19 -43 -78 -75q66 -36 83 -90q15 -44 15 -233v-269q0 -184 20 -229 q26 -60 139 -60h66v-117h-122q-174 0 -230 76q-41 57 -50 171q-4 47 -4 160v300q0 146 -12 177q-25 62 -122 61h-36z" />
<glyph unicode="|" horiz-adv-x="666" vert-adv-y="2457" d="M245 -497v1904h175v-1904h-175z" />
<glyph unicode="}" horiz-adv-x="797" vert-adv-y="2457" d="M78 -232h66q112 0 138 60q20 45 20 229v269q0 139 3 174q8 82 49 118q16 15 46 31q-65 35 -83 90q-15 43 -15 233v170q0 187 -21 232q-27 56 -137 56h-66v117h122q173 0 229 -76q41 -57 50 -171q4 -45 4 -160v-200q0 -146 12 -177q25 -62 122 -61h37v-106h-37 q-74 1 -104 -32q-21 -23 -27 -71q-3 -28 -3 -135v-300q0 -160 -12 -229q-20 -113 -103 -150q-62 -28 -168 -28h-122v117z" />
<glyph unicode="~" vert-adv-y="2457" d="M151 524q28 115 75 184q69 102 198 102q76 0 139 -31q35 -18 102 -66q58 -42 80 -54q33 -18 66 -18q100 0 146 166l121 -30q-28 -115 -75 -184q-70 -102 -199 -102q-70 0 -123 25q-56 27 -166 106q-53 38 -97 38q-100 0 -146 -165z" />
<glyph unicode="&#xa0;" horiz-adv-x="451" vert-adv-y="2457" />
<glyph unicode="&#xa1;" horiz-adv-x="661" vert-adv-y="2457" d="M230 1187v216h203v-216h-203zM234 -95l19 1087h156l19 -1087h-194z" />
<glyph unicode="&#xa2;" vert-adv-y="2457" d="M209 876q0 241 71 365q84 146 325 161v192h143v-193q101 -6 236 -43l-18 -160q-100 43 -218 56v-743q127 14 238 64l18 -162q-127 -40 -256 -49v-238h-143v237q-143 10 -227 56q-101 56 -139 196q-30 107 -30 261zM396 883q0 -233 64 -304q47 -53 145 -65v738 q-102 -17 -145 -64q-64 -70 -64 -305z" />
<glyph unicode="&#xa3;" vert-adv-y="2457" d="M119 643l33 143h189v219q0 239 75 328q88 103 308 103q143 0 329 -41l-26 -153q-157 45 -292 45q-144 0 -186 -82q-27 -53 -27 -201v-218h321l-33 -143h-288v-493h576l-12 -150h-937l11 150h181v493h-222z" />
<glyph unicode="&#xa4;" vert-adv-y="2457" d="M106 212l124 141q-32 60 -42 105q-21 88 -21 209q0 124 21 212q10 44 42 103l-124 141l120 97l124 -140q118 46 261 46t261 -46l124 140l120 -97l-124 -141q31 -58 42 -104q21 -88 21 -211q0 -115 -20 -205q-11 -49 -43 -109l124 -141l-120 -97l-124 140 q-116 -46 -261 -46t-261 46l-124 -140zM349 669q0 -176 43 -243q30 -46 91 -62q47 -13 127 -13q113 0 164 25q68 34 87 143q12 74 12 148q0 175 -43 242q-30 46 -90 62q-47 13 -129 13q-111 0 -163 -26q-68 -33 -86 -142q-13 -76 -13 -147z" />
<glyph unicode="&#xa5;" vert-adv-y="2457" d="M6 1407h206l398 -713l399 713h200l-450 -769h278l-47 -118h-290v-123h337l-47 -118h-290v-279h-184v279h-339l48 118h291v123h-339l48 118h232z" />
<glyph unicode="&#xa6;" horiz-adv-x="666" vert-adv-y="2457" d="M245 0v516h175v-516h-175zM245 858v549h175v-549h-175z" />
<glyph unicode="&#xa7;" horiz-adv-x="1196" vert-adv-y="2457" d="M192 615q0 135 73 211q32 34 95 64q-104 73 -104 228q0 82 29 156q66 168 324 168q158 0 321 -50l-20 -152q-147 53 -288 53q-115 0 -155 -48q-32 -39 -32 -114q0 -80 46 -120q29 -24 75 -38q45 -14 116 -32q179 -47 251 -91q105 -65 105 -216q0 -194 -149 -265 q126 -74 126 -247q0 -160 -80 -244q-93 -96 -313 -96q-200 0 -399 71l19 152q80 -30 126 -43q113 -30 244 -30q130 0 180 47q44 42 44 130t-50 129q-30 24 -80 39q-49 15 -123 33q-195 49 -269 91q-112 64 -112 214zM371 649q0 -85 50 -121q28 -19 76 -33l94 -25l139 -39 q56 22 78 46q41 45 41 126t-45 117q-27 21 -74 35l-87 25l-141 42q-131 -31 -131 -173z" />
<glyph unicode="&#xa8;" horiz-adv-x="947" vert-adv-y="2457" d="M222 1219v207l188 12v-207zM537 1219v207l188 12v-207z" />
<glyph unicode="&#xa9;" horiz-adv-x="1697" vert-adv-y="2457" d="M116 710q0 299 190 504q208 223 543 223q337 0 542 -223q191 -207 191 -513q0 -305 -191 -511q-205 -221 -540 -221q-340 0 -545 221q-190 206 -190 520zM244 709q0 -268 161 -442q172 -184 446 -184q270 0 442 184q161 173 161 434q0 266 -161 436q-177 186 -444 186 q-272 0 -444 -186q-161 -174 -161 -428zM552 695q0 185 77 270q82 92 266 92q98 0 208 -32l-14 -116q-92 35 -190 35q-123 0 -163 -60q-39 -58 -39 -184q0 -130 38 -182q42 -56 174 -56q95 0 188 32l17 -117q-108 -28 -201 -28q-204 0 -286 89q-75 82 -75 257z" />
<glyph unicode="&#xaa;" horiz-adv-x="740" vert-adv-y="2457" d="M94 979q0 109 53 155q51 44 204 53q18 1 129 4v22q0 62 -14 81q-22 29 -97 29q-92 0 -211 -41l-16 115q116 39 245 39q172 0 214 -78q21 -40 21 -142v-404h-110l-9 44q-80 -59 -195 -59q-116 0 -164 40q-50 41 -50 142zM241 987q0 -50 23 -64q22 -14 80 -14q81 0 136 43 v134q-152 -4 -185 -13q-38 -11 -46 -36q-8 -22 -8 -50z" />
<glyph unicode="&#xab;" horiz-adv-x="874" vert-adv-y="2457" d="M59 564v45l306 344l94 -72l-201 -295l201 -294l-94 -72zM439 564v45l306 344l94 -72l-201 -295l201 -294l-94 -72z" />
<glyph unicode="&#xac;" vert-adv-y="2457" d="M197 575v147h796v-574h-176v427h-620z" />
<glyph unicode="&#xad;" horiz-adv-x="678" vert-adv-y="2457" d="M68 572l13 154h528l-13 -154h-528z" />
<glyph unicode="&#xae;" horiz-adv-x="1156" vert-adv-y="2457" d="M15 1143q0 194 116 337q171 211 448 211q280 0 447 -211q116 -146 116 -342q0 -251 -168 -412q-156 -149 -393 -149q-284 0 -447 205q-119 150 -119 361zM134 1140q0 -168 85 -283q129 -177 361 -177q231 0 360 177q84 115 84 277q0 164 -84 277q-133 177 -361 177 q-231 0 -360 -177q-85 -115 -85 -271zM401 871v536h189q130 0 178 -38q49 -39 49 -129q0 -121 -104 -153l135 -217h-132l-82 141q-20 34 -30 44q-13 13 -41 13h-45v-197h-117zM518 1163h76q70 0 87 18q18 17 18 54q0 45 -25 61q-19 12 -81 12h-75v-145z" />
<glyph unicode="&#xaf;" horiz-adv-x="947" vert-adv-y="2457" d="M206 1245l12 147h520l-12 -147h-520z" />
<glyph unicode="&#xb0;" horiz-adv-x="619" vert-adv-y="2457" d="M24 1217q0 270 286 270q285 0 285 -274q0 -128 -60 -196q-68 -78 -226 -78q-157 0 -225 78q-60 68 -60 200zM162 1215q0 -78 29 -117q32 -43 119 -43q86 0 118 43q29 39 29 115q0 77 -29 115q-32 43 -118 43t-119 -43q-29 -38 -29 -113z" />
<glyph unicode="&#xb1;" vert-adv-y="2457" d="M147 0l12 147h912l-11 -147h-913zM147 645l12 147h366v391h172v-391h378l-12 -147h-366v-391h-172v391h-378z" />
<glyph unicode="&#xb2;" horiz-adv-x="807" vert-adv-y="2457" d="M94 795v97l283 302q68 72 106 132q37 56 37 112q0 53 -25 79q-33 34 -129 34q-114 0 -230 -36l-19 124q138 34 255 34q165 0 239 -69q58 -54 58 -161q0 -95 -52 -169q-33 -49 -140 -163l-174 -188h402l-11 -128h-600z" />
<glyph unicode="&#xb3;" horiz-adv-x="807" vert-adv-y="2457" d="M76 808l16 129q113 -36 235 -36q121 0 157 36q31 30 31 119q0 83 -38 109q-32 21 -124 21h-149v123h148q82 0 111 26q28 25 28 83q0 79 -28 104q-33 29 -127 29q-89 0 -212 -36l-20 124q125 34 244 34q177 0 243 -79q49 -57 49 -172q0 -111 -72 -167q96 -59 96 -208 q0 -146 -77 -208q-72 -60 -255 -60q-144 0 -256 29z" />
<glyph unicode="&#xb4;" horiz-adv-x="945" vert-adv-y="2457" d="M382 1151l103 331h220l-192 -331h-131z" />
<glyph unicode="&#xb5;" vert-adv-y="2457" d="M204 -492v1475h181v-621q0 -139 19 -176q30 -61 134 -61q101 0 206 69q55 36 95 78v711h181v-983h-162l-9 101q-155 -130 -328 -130q-76 0 -136 27v-490h-181z" />
<glyph unicode="&#xb6;" horiz-adv-x="1199" vert-adv-y="2457" d="M13 975q0 277 131 370q70 50 193 59q36 3 164 3h471v-1916h-176v1763h-174v-1763h-178v1077q-116 0 -176 10q-100 15 -165 83q-90 92 -90 314z" />
<glyph unicode="&#xb7;" horiz-adv-x="606" vert-adv-y="2457" d="M195 536v226h215v-226h-215z" />
<glyph unicode="&#xb8;" horiz-adv-x="945" vert-adv-y="2457" d="M326 -483l25 115q82 -26 148 -26q103 0 103 91q0 66 -78 83q-34 8 -112 10l-22 39l105 171h135l-72 -118q83 -11 125 -32q84 -41 84 -154q0 -97 -47 -149q-54 -60 -185 -60q-111 0 -209 30z" />
<glyph unicode="&#xb9;" horiz-adv-x="807" vert-adv-y="2457" d="M115 795v128h238v598l-206 -48l-30 105l274 81h105v-736h214v-128h-595z" />
<glyph unicode="&#xba;" horiz-adv-x="720" vert-adv-y="2457" d="M69 1121q0 176 60 245q62 70 231 70q182 0 242 -84q49 -69 49 -235q0 -180 -60 -249q-62 -70 -231 -70q-182 0 -242 84q-49 70 -49 239zM217 1119q0 -121 20 -161q25 -48 123 -48q105 0 128 59q16 40 16 148q0 119 -20 159q-25 48 -124 48q-104 0 -127 -59 q-16 -40 -16 -146z" />
<glyph unicode="&#xbb;" horiz-adv-x="888" vert-adv-y="2457" d="M54 292l201 295l-201 294l94 72l306 -344v-45l-306 -344zM434 292l201 295l-201 294l94 72l306 -344v-45l-306 -344z" />
<glyph unicode="&#xbc;" horiz-adv-x="1811" vert-adv-y="2457" d="M115 549v128h238v598l-206 -48l-30 105l274 81h105v-736h214v-128h-595zM500 0l690 1407h148l-691 -1407h-147zM1044 199v101l145 296q50 100 50 187v88h142v-97q0 -67 -17 -123q-12 -40 -49 -117l-104 -213h262v352h143v-352h123l-10 -122h-113v-199h-143v199h-429z" />
<glyph unicode="&#xbd;" horiz-adv-x="1811" vert-adv-y="2457" d="M115 549v128h238v598l-206 -48l-30 105l274 81h105v-736h214v-128h-595zM475 0l691 1407h148l-691 -1407h-148zM1087 0v97l283 302q67 72 106 132q37 56 37 112q0 53 -25 79q-32 34 -129 34q-114 0 -230 -36l-19 124q138 34 255 34q165 0 239 -69q58 -54 58 -160 q0 -96 -52 -170q-33 -48 -140 -163l-174 -188h402l-11 -128h-600z" />
<glyph unicode="&#xbe;" horiz-adv-x="1811" vert-adv-y="2457" d="M81 562l16 129q113 -36 235 -36q121 0 157 36q31 30 31 119q0 84 -38 110q-32 21 -124 21h-149v123h148q82 0 111 26q28 24 28 82q0 80 -28 105q-33 28 -127 28q-91 0 -212 -36l-20 124q126 34 244 34q177 0 243 -78q49 -57 49 -173q0 -111 -72 -166q96 -59 96 -208 q0 -147 -77 -209q-72 -60 -255 -60q-143 0 -256 29zM486 0l690 1407h148l-690 -1407h-148zM1062 199v101l145 296q50 101 50 187v88h142v-97q0 -66 -17 -123q-13 -42 -50 -117l-103 -213h262v352h143v-352h123l-11 -122h-112v-199h-143v199h-429z" />
<glyph unicode="&#xbf;" horiz-adv-x="852" vert-adv-y="2457" d="M70 193q0 119 49 202q27 47 133 170q82 95 104 144q23 53 23 141v142h167v-157q0 -118 -29 -188q-24 -59 -128 -177q-79 -89 -103 -137q-28 -55 -28 -122q0 -89 37 -130q42 -47 159 -47q105 0 254 47l24 -147q-148 -46 -312 -46q-195 0 -280 89q-70 73 -70 216zM360 1187 v216h203v-216h-203z" />
<glyph unicode="&#xc0;" horiz-adv-x="1273" vert-adv-y="2457" d="M-26 0l580 1407h167l578 -1407h-203l-144 370h-635l-144 -370h-199zM373 520h523l-262 680zM420 1846h220l103 -318h-130z" />
<glyph unicode="&#xc1;" horiz-adv-x="1273" vert-adv-y="2457" d="M-26 0l580 1407h167l578 -1407h-203l-144 370h-635l-144 -370h-199zM373 520h523l-262 680zM546 1528l103 318h220l-192 -318h-131z" />
<glyph unicode="&#xc2;" horiz-adv-x="1273" vert-adv-y="2457" d="M-26 0l580 1407h167l578 -1407h-203l-144 370h-635l-144 -370h-199zM297 1528l261 318h156l261 -318h-173l-166 201l-165 -201h-174zM373 520h523l-262 680z" />
<glyph unicode="&#xc3;" horiz-adv-x="1273" vert-adv-y="2457" d="M-26 0l580 1407h167l578 -1407h-203l-144 370h-635l-144 -370h-199zM273 1561q47 253 231 253q51 0 101 -23q23 -10 67 -44q42 -34 62 -46q24 -15 47 -15q68 0 96 128h125q-46 -253 -233 -253q-83 0 -168 68q-46 36 -59 45q-26 15 -49 15q-66 0 -96 -128h-124zM373 520 h523l-262 680z" />
<glyph unicode="&#xc4;" horiz-adv-x="1273" vert-adv-y="2457" d="M-26 0l580 1407h167l578 -1407h-203l-144 370h-635l-144 -370h-199zM373 520h523l-262 680zM385 1579v207l188 12v-207zM700 1579v207l188 12v-207z" />
<glyph unicode="&#xc5;" horiz-adv-x="1273" vert-adv-y="2457" d="M-26 0l580 1407h167l578 -1407h-203l-144 370h-635l-144 -370h-199zM373 520h523l-262 680zM426 1707q0 87 49 141q56 60 161 60q107 0 162 -60q49 -54 49 -144q0 -88 -49 -143q-54 -60 -161 -60q-108 0 -162 60q-49 55 -49 146zM531 1706q0 -115 106 -115q105 0 105 113 q0 114 -105 114q-106 0 -106 -112z" />
<glyph unicode="&#xc6;" horiz-adv-x="1842" vert-adv-y="2457" d="M-73 0l796 1407h1019l-16 -159h-695v-434h547l-16 -159h-531v-496h733l-14 -159h-903v364h-511l-201 -364h-208zM416 514h431v733h-31z" />
<glyph unicode="&#xc7;" horiz-adv-x="1100" vert-adv-y="2457" d="M116 684q0 385 130 564q138 188 472 188q170 0 314 -47l-20 -168q-131 55 -290 55q-255 0 -337 -153q-75 -141 -75 -425q0 -295 76 -425q82 -141 338 -141q166 0 308 58l20 -169q-147 -50 -312 -49l-57 -90q83 -11 125 -32q84 -41 84 -154q0 -97 -47 -149 q-54 -60 -184 -60q-113 0 -210 30l25 115q82 -26 148 -26q103 0 103 91q0 66 -78 83q-34 8 -112 10l-22 39l91 149q-257 28 -363 174q-127 175 -127 532z" />
<glyph unicode="&#xc8;" horiz-adv-x="1166" vert-adv-y="2457" d="M171 0v1407h895l-16 -159h-695v-434h572l-15 -159h-557v-496h733l-14 -159h-903zM401 1846h220l103 -318h-130z" />
<glyph unicode="&#xc9;" horiz-adv-x="1166" vert-adv-y="2457" d="M171 0v1407h895l-16 -159h-695v-434h572l-15 -159h-557v-496h733l-14 -159h-903zM537 1528l103 318h220l-192 -318h-131z" />
<glyph unicode="&#xca;" horiz-adv-x="1166" vert-adv-y="2457" d="M171 0v1407h895l-16 -159h-695v-434h572l-15 -159h-557v-496h733l-14 -159h-903zM283 1528l261 318h156l261 -318h-173l-166 201l-165 -201h-174z" />
<glyph unicode="&#xcb;" horiz-adv-x="1166" vert-adv-y="2457" d="M171 0v1407h895l-16 -159h-695v-434h572l-15 -159h-557v-496h733l-14 -159h-903zM342 1579v207l188 12v-207zM657 1579v207l188 12v-207z" />
<glyph unicode="&#xcc;" horiz-adv-x="551" vert-adv-y="2457" d="M58 1846h220l103 -318h-130zM183 0v1407h184v-1407h-184z" />
<glyph unicode="&#xcd;" horiz-adv-x="551" vert-adv-y="2457" d="M179 0v1407h184v-1407h-184zM181 1528l103 318h220l-192 -318h-131z" />
<glyph unicode="&#xce;" horiz-adv-x="551" vert-adv-y="2457" d="M-64 1528l261 318h156l261 -318h-173l-166 201l-165 -201h-174zM183 0v1407h184v-1407h-184z" />
<glyph unicode="&#xcf;" horiz-adv-x="551" vert-adv-y="2457" d="M24 1579v207l188 12v-207zM183 0v1407h184v-1407h-184zM339 1579v207l188 12v-207z" />
<glyph unicode="&#xd0;" horiz-adv-x="1389" vert-adv-y="2457" d="M28 669l11 146h163v592h499q200 0 308 -54q148 -73 212 -279q51 -163 51 -371q0 -342 -127 -529q-81 -119 -235 -155q-82 -19 -209 -19h-499v669h-174zM386 159h274q163 0 242 40q106 54 146 215q33 135 33 289q0 276 -84 415q-55 92 -176 118q-54 12 -161 12h-274v-433 h328l-11 -146h-317v-510z" />
<glyph unicode="&#xd1;" horiz-adv-x="1386" vert-adv-y="2457" d="M171 0v1407h177l694 -1057v1057h173v-1407h-145l-726 1125v-1125h-173zM343 1561q47 253 231 253q51 0 101 -23q23 -10 67 -44q42 -34 62 -46q24 -15 47 -15q68 0 96 128h125q-46 -253 -233 -253q-83 0 -168 68q-46 36 -59 45q-26 15 -49 15q-66 0 -96 -128h-124z" />
<glyph unicode="&#xd2;" horiz-adv-x="1431" vert-adv-y="2457" d="M119 709q0 373 120 542q133 185 476 185q351 0 484 -195q112 -165 112 -537q0 -379 -116 -543q-134 -190 -479 -190q-340 0 -474 182q-123 167 -123 556zM313 709q0 -295 63 -421q79 -157 339 -157t339 157q63 126 63 416q0 288 -63 415q-79 157 -339 157t-339 -157 q-63 -126 -63 -410zM498 1846h220l103 -318h-130z" />
<glyph unicode="&#xd3;" horiz-adv-x="1431" vert-adv-y="2457" d="M119 709q0 373 120 542q133 185 476 185q351 0 484 -195q112 -165 112 -537q0 -379 -116 -543q-134 -190 -479 -190q-340 0 -474 182q-123 167 -123 556zM313 709q0 -295 63 -421q79 -157 339 -157t339 157q63 126 63 416q0 288 -63 415q-79 157 -339 157t-339 -157 q-63 -126 -63 -410zM625 1528l103 318h220l-192 -318h-131z" />
<glyph unicode="&#xd4;" horiz-adv-x="1431" vert-adv-y="2457" d="M119 709q0 373 120 542q133 185 476 185q351 0 484 -195q112 -165 112 -537q0 -379 -116 -543q-134 -190 -479 -190q-340 0 -474 182q-123 167 -123 556zM313 709q0 -295 63 -421q79 -157 339 -157t339 157q63 126 63 416q0 288 -63 415q-79 157 -339 157t-339 -157 q-63 -126 -63 -410zM376 1528l261 318h156l261 -318h-173l-166 201l-165 -201h-174z" />
<glyph unicode="&#xd5;" horiz-adv-x="1431" vert-adv-y="2457" d="M119 709q0 373 120 542q133 185 476 185q351 0 484 -195q112 -165 112 -537q0 -379 -116 -543q-134 -190 -479 -190q-340 0 -474 182q-123 167 -123 556zM313 709q0 -295 63 -421q79 -157 339 -157t339 157q63 126 63 416q0 288 -63 415q-79 157 -339 157t-339 -157 q-63 -126 -63 -410zM351 1561q47 253 231 253q51 0 101 -23q23 -10 67 -44q42 -34 62 -46q24 -15 47 -15q68 0 96 128h125q-46 -253 -233 -253q-83 0 -168 68q-46 36 -59 45q-26 15 -49 15q-66 0 -96 -128h-124z" />
<glyph unicode="&#xd6;" horiz-adv-x="1431" vert-adv-y="2457" d="M119 709q0 373 120 542q133 185 476 185q351 0 484 -195q112 -165 112 -537q0 -379 -116 -543q-134 -190 -479 -190q-340 0 -474 182q-123 167 -123 556zM313 709q0 -295 63 -421q79 -157 339 -157t339 157q63 126 63 416q0 288 -63 415q-79 157 -339 157t-339 -157 q-63 -126 -63 -410zM463 1579v207l188 12v-207zM779 1579v207l188 12v-207z" />
<glyph unicode="&#xd7;" vert-adv-y="2457" d="M178 324l321 325l-321 325l113 114l321 -325l320 325l114 -114l-321 -325l321 -325l-114 -113l-320 324l-321 -325z" />
<glyph unicode="&#xd8;" horiz-adv-x="1431" vert-adv-y="2457" d="M110 48l109 140q-100 165 -100 516q0 381 121 547q134 185 476 185q221 0 349 -74q20 -11 49 -32l88 113l119 -84l-108 -139q98 -161 98 -516q0 -379 -116 -543q-134 -190 -480 -190q-257 0 -396 105l-88 -112zM313 704q0 -236 37 -350l653 835q-92 87 -287 87 q-260 0 -340 -157q-63 -126 -63 -415zM429 217q90 -86 285 -86q261 0 340 157q63 126 63 415q0 237 -36 349z" />
<glyph unicode="&#xd9;" horiz-adv-x="1314" vert-adv-y="2457" d="M163 444v963h184v-934q0 -193 54 -258q69 -84 256 -84q204 0 268 100q42 64 42 242v934h184v-963q0 -140 -22 -219q-39 -142 -179 -204q-113 -50 -293 -50q-307 0 -419 143q-75 95 -75 330zM449 1846h220l103 -318h-130z" />
<glyph unicode="&#xda;" horiz-adv-x="1314" vert-adv-y="2457" d="M163 444v963h184v-934q0 -193 54 -258q69 -84 256 -84q204 0 268 100q42 64 42 242v934h184v-963q0 -140 -22 -219q-39 -142 -179 -204q-113 -50 -293 -50q-307 0 -419 143q-75 95 -75 330zM569 1528l103 318h220l-192 -318h-131z" />
<glyph unicode="&#xdb;" horiz-adv-x="1314" vert-adv-y="2457" d="M163 444v963h184v-934q0 -193 54 -258q69 -84 256 -84q204 0 268 100q42 64 42 242v934h184v-963q0 -140 -22 -219q-39 -142 -179 -204q-113 -50 -293 -50q-307 0 -419 143q-75 95 -75 330zM318 1528l261 318h156l261 -318h-173l-166 201l-165 -201h-174z" />
<glyph unicode="&#xdc;" horiz-adv-x="1314" vert-adv-y="2457" d="M163 444v963h184v-934q0 -193 54 -258q69 -84 256 -84q204 0 268 100q42 64 42 242v934h184v-963q0 -140 -22 -219q-39 -142 -179 -204q-113 -50 -293 -50q-307 0 -419 143q-75 95 -75 330zM405 1579v207l188 12v-207zM720 1579v207l188 12v-207z" />
<glyph unicode="&#xdd;" horiz-adv-x="1142" vert-adv-y="2457" d="M-17 1407h207l384 -713l386 713h200l-496 -872v-535h-184v535zM492 1528l103 318h220l-192 -318h-131z" />
<glyph unicode="&#xde;" horiz-adv-x="1162" vert-adv-y="2457" d="M171 0v1407h184v-227h276q263 0 368 -99q108 -102 108 -350q0 -247 -108 -350q-104 -99 -368 -99h-276v-282h-184zM355 441h248q198 0 257 66t59 224t-59 224q-40 45 -132 58q-54 8 -125 8h-248v-580z" />
<glyph unicode="&#xdf;" horiz-adv-x="1236" vert-adv-y="2457" d="M231 0v1079q0 236 92 326q100 97 319 97t321 -95q92 -86 92 -226q0 -92 -39 -159q-28 -50 -97 -106q-70 -58 -85 -82q-16 -25 -16 -54q0 -43 32 -70q21 -17 89 -58q125 -73 161 -130q53 -85 53 -238q0 -167 -71 -238q-73 -72 -236 -72q-116 0 -209 26l17 146 q77 -26 169 -26q88 0 120 36q28 33 28 125t-30 148q-27 52 -121 108q-109 65 -141 109q-35 47 -35 120q0 78 39 137q25 38 88 91q70 58 88 98q18 39 18 83q0 91 -54 134q-55 43 -176 43q-152 0 -198 -83q-37 -67 -37 -233v-1036h-181z" />
<glyph unicode="&#xe0;" horiz-adv-x="1072" vert-adv-y="2457" d="M85 260q0 227 130 291q79 39 236 51q34 3 205 9l81 3v32q0 125 -27 160q-42 56 -191 56q-168 0 -332 -62l-23 156q194 56 375 56q279 0 348 -142q24 -51 29 -131q2 -30 2 -127v-612h-149l-16 64q-51 -36 -91 -53q-96 -40 -237 -40q-194 0 -272 73q-68 65 -68 216z M271 283q0 -102 52 -133q44 -27 144 -27q163 0 270 101v253q-287 -6 -350 -23q-78 -22 -99 -72q-17 -42 -17 -99zM322 1482h220l103 -331h-130z" />
<glyph unicode="&#xe1;" horiz-adv-x="1072" vert-adv-y="2457" d="M85 260q0 227 130 291q79 39 236 51q34 3 205 9l81 3v32q0 125 -27 160q-42 56 -191 56q-168 0 -332 -62l-23 156q194 56 375 56q279 0 348 -142q24 -51 29 -131q2 -30 2 -127v-612h-149l-16 64q-51 -36 -91 -53q-96 -40 -237 -40q-194 0 -272 73q-68 65 -68 216z M271 283q0 -102 52 -133q44 -27 144 -27q163 0 270 101v253q-287 -6 -350 -23q-78 -22 -99 -72q-17 -42 -17 -99zM451 1151l103 331h220l-192 -331h-131z" />
<glyph unicode="&#xe2;" horiz-adv-x="1072" vert-adv-y="2457" d="M85 260q0 227 130 291q79 39 236 51q34 3 205 9l81 3v32q0 125 -27 160q-42 56 -191 56q-168 0 -332 -62l-23 156q194 56 375 56q279 0 348 -142q24 -51 29 -131q2 -30 2 -127v-612h-149l-16 64q-51 -36 -91 -53q-96 -40 -237 -40q-194 0 -272 73q-68 65 -68 216z M197 1151l261 318h156l261 -318h-173l-166 201l-165 -201h-174zM271 283q0 -102 52 -133q44 -27 144 -27q163 0 270 101v253q-287 -6 -350 -23q-78 -22 -99 -72q-17 -42 -17 -99z" />
<glyph unicode="&#xe3;" horiz-adv-x="1072" vert-adv-y="2457" d="M85 260q0 227 130 291q79 39 236 51q34 3 205 9l81 3v32q0 125 -27 160q-42 56 -191 56q-168 0 -332 -62l-23 156q194 56 375 56q279 0 348 -142q24 -51 29 -131q2 -30 2 -127v-612h-149l-16 64q-51 -36 -91 -53q-96 -40 -237 -40q-194 0 -272 73q-68 65 -68 216z M170 1199q47 253 231 253q51 0 101 -23q23 -10 67 -44q43 -34 62 -46q24 -15 47 -15q68 0 96 128h125q-46 -253 -233 -253q-84 0 -168 68q-45 36 -59 45q-26 15 -49 15q-66 0 -96 -128h-124zM271 283q0 -102 52 -133q44 -27 144 -27q163 0 270 101v253q-287 -6 -350 -23 q-78 -22 -99 -72q-17 -42 -17 -99z" />
<glyph unicode="&#xe4;" horiz-adv-x="1072" vert-adv-y="2457" d="M85 260q0 227 130 291q79 39 236 51q34 3 205 9l81 3v32q0 125 -27 160q-42 56 -191 56q-168 0 -332 -62l-23 156q194 56 375 56q279 0 348 -142q24 -51 29 -131q2 -30 2 -127v-612h-149l-16 64q-51 -36 -91 -53q-96 -40 -237 -40q-194 0 -272 73q-68 65 -68 216z M271 283q0 -102 52 -133q44 -27 144 -27q163 0 270 101v253q-287 -6 -350 -23q-78 -22 -99 -72q-17 -42 -17 -99zM285 1219v207l188 12v-207zM600 1219v207l188 12v-207z" />
<glyph unicode="&#xe5;" horiz-adv-x="1072" vert-adv-y="2457" d="M85 260q0 227 130 291q79 39 236 51q34 3 205 9l81 3v32q0 125 -27 160q-42 56 -191 56q-168 0 -332 -62l-23 156q194 56 375 56q279 0 348 -142q24 -51 29 -131q2 -30 2 -127v-612h-149l-16 64q-51 -36 -91 -53q-96 -40 -237 -40q-194 0 -272 73q-68 65 -68 216z M271 283q0 -102 52 -133q44 -27 144 -27q163 0 270 101v253q-287 -6 -350 -23q-78 -22 -99 -72q-17 -42 -17 -99zM331 1340q0 87 49 141q56 60 161 60q107 0 162 -60q49 -54 49 -144q0 -88 -49 -143q-54 -60 -161 -60q-108 0 -162 60q-49 55 -49 146zM436 1339 q0 -115 106 -115q105 0 105 113q0 114 -105 114q-106 0 -106 -112z" />
<glyph unicode="&#xe6;" horiz-adv-x="1712" vert-adv-y="2457" d="M85 254q0 222 130 284q79 38 236 50q34 3 205 9l81 2v48q0 124 -27 160q-42 55 -191 55q-169 0 -332 -62l-23 156q194 56 372 56q163 0 242 -51q33 -21 67 -71q38 44 78 68q92 56 253 56q325 0 398 -233q33 -104 32 -326h-694q6 -140 27 -200q28 -78 105 -108 q62 -24 180 -24q160 0 324 48l22 -157q-177 -43 -361 -43q-285 0 -385 129q-77 -55 -110 -72q-112 -57 -286 -57q-197 0 -274 72q-69 63 -69 211zM271 277q0 -98 52 -128q44 -25 143 -25q175 0 294 115q-22 88 -23 224q-286 -5 -350 -22q-78 -21 -99 -69q-17 -40 -17 -95z M914 587h512q-5 110 -32 170q-48 109 -223 109q-167 0 -218 -96q-31 -60 -39 -183z" />
<glyph unicode="&#xe7;" horiz-adv-x="936" vert-adv-y="2457" d="M114 484q0 325 127 435q107 93 314 93q139 0 305 -46l-19 -161q-133 52 -273 52q-179 0 -229 -100q-38 -75 -38 -265q0 -215 49 -287q55 -81 221 -81q147 0 290 58l18 -162q-122 -40 -251 -49l-56 -89q83 -11 125 -32q84 -41 84 -154q0 -97 -47 -149q-54 -60 -184 -60 q-112 0 -210 30l25 115q82 -26 148 -26q103 0 103 91q0 66 -78 83q-34 8 -112 10l-22 39l88 143q-140 10 -217 56q-97 58 -132 193q-29 108 -29 263z" />
<glyph unicode="&#xe8;" horiz-adv-x="1099" vert-adv-y="2457" d="M114 485q0 290 91 403q102 126 353 126q330 0 403 -233q33 -104 32 -326h-697q7 -140 28 -200q28 -79 105 -108q63 -24 181 -24q160 0 325 48l22 -157q-178 -43 -360 -43q-190 0 -290 47q-129 60 -169 223q-24 97 -24 244zM299 587h514q-5 109 -31 170q-48 109 -224 109 q-168 0 -220 -96q-33 -62 -39 -183zM351 1482h220l103 -331h-130z" />
<glyph unicode="&#xe9;" horiz-adv-x="1099" vert-adv-y="2457" d="M114 485q0 290 91 403q102 126 353 126q330 0 403 -233q33 -104 32 -326h-697q7 -140 28 -200q28 -79 105 -108q63 -24 181 -24q160 0 325 48l22 -157q-178 -43 -360 -43q-190 0 -290 47q-129 60 -169 223q-24 97 -24 244zM299 587h514q-5 109 -31 170q-48 109 -224 109 q-168 0 -220 -96q-33 -62 -39 -183zM477 1151l103 331h220l-192 -331h-131z" />
<glyph unicode="&#xea;" horiz-adv-x="1099" vert-adv-y="2457" d="M114 485q0 290 91 403q102 126 353 126q330 0 403 -233q33 -104 32 -326h-697q7 -140 28 -200q28 -79 105 -108q63 -24 181 -24q160 0 325 48l22 -157q-178 -43 -360 -43q-190 0 -290 47q-129 60 -169 223q-24 97 -24 244zM229 1151l261 318h156l261 -318h-173l-166 201 l-165 -201h-174zM299 587h514q-5 109 -31 170q-48 109 -224 109q-168 0 -220 -96q-33 -62 -39 -183z" />
<glyph unicode="&#xeb;" horiz-adv-x="1099" vert-adv-y="2457" d="M114 485q0 290 91 403q102 126 353 126q330 0 403 -233q33 -104 32 -326h-697q7 -140 28 -200q28 -79 105 -108q63 -24 181 -24q160 0 325 48l22 -157q-178 -43 -360 -43q-190 0 -290 47q-129 60 -169 223q-24 97 -24 244zM299 587h514q-5 109 -31 170q-48 109 -224 109 q-168 0 -220 -96q-33 -62 -39 -183zM316 1219v207l188 12v-207zM631 1219v207l188 12v-207z" />
<glyph unicode="&#xec;" horiz-adv-x="507" vert-adv-y="2457" d="M36 1482h220l103 -331h-130zM162 0v983h181v-983h-181z" />
<glyph unicode="&#xed;" horiz-adv-x="507" vert-adv-y="2457" d="M158 0v983h181v-983h-181zM158 1151l103 331h220l-192 -331h-131z" />
<glyph unicode="&#xee;" horiz-adv-x="507" vert-adv-y="2457" d="M-86 1151l261 318h156l261 -318h-173l-166 201l-165 -201h-174zM162 0v983h181v-983h-181z" />
<glyph unicode="&#xef;" horiz-adv-x="507" vert-adv-y="2457" d="M2 1219v207l188 12v-207zM163 0v983h181v-983h-181zM317 1219v207l188 12v-207z" />
<glyph unicode="&#xf0;" horiz-adv-x="1132" vert-adv-y="2457" d="M114 493q0 254 66 366q86 147 330 147q171 0 297 -97v46q0 131 -48 215q-19 34 -74 87l-163 -135l-92 89l129 105q-90 26 -289 29l19 132q252 -4 394 -52l134 110l92 -89l-101 -82q88 -68 135 -175q37 -84 49 -228q8 -95 8 -283q0 -245 -15 -378q-21 -191 -131 -263 q-101 -66 -295 -66q-290 0 -379 150q-66 112 -66 372zM301 491q0 -199 41 -276q48 -89 218 -89q163 0 208 89q39 78 39 277v254q-112 111 -260 111q-158 0 -205 -88q-41 -78 -41 -278z" />
<glyph unicode="&#xf1;" horiz-adv-x="1177" vert-adv-y="2457" d="M163 0v983h162l11 -107q183 136 387 136q219 0 273 -138q26 -66 26 -228v-646h-181v621q0 137 -18 174q-31 62 -141 62q-170 0 -338 -152v-705h-181zM233 1199q47 253 231 253q51 0 101 -23q23 -10 67 -44q43 -34 62 -46q24 -15 47 -15q68 0 96 128h125 q-46 -253 -233 -253q-84 0 -168 68q-45 36 -59 45q-26 15 -49 15q-66 0 -96 -128h-124z" />
<glyph unicode="&#xf2;" horiz-adv-x="1142" vert-adv-y="2457" d="M114 497q0 254 68 365q92 150 389 150t390 -150q68 -110 68 -370q0 -261 -68 -371q-93 -150 -389 -150q-297 0 -390 150q-68 110 -68 376zM301 495q0 -203 43 -280q50 -89 228 -89q177 0 227 89q43 77 43 277q0 198 -43 276q-49 89 -227 89t-228 -89q-43 -77 -43 -273z M354 1482h220l103 -331h-130z" />
<glyph unicode="&#xf3;" horiz-adv-x="1142" vert-adv-y="2457" d="M114 497q0 254 68 365q92 150 389 150t390 -150q68 -110 68 -370q0 -261 -68 -371q-93 -150 -389 -150q-297 0 -390 150q-68 110 -68 376zM301 495q0 -203 43 -280q50 -89 228 -89q177 0 227 89q43 77 43 277q0 198 -43 276q-49 89 -227 89t-228 -89q-43 -77 -43 -273z M481 1151l103 331h220l-192 -331h-131z" />
<glyph unicode="&#xf4;" horiz-adv-x="1142" vert-adv-y="2457" d="M114 497q0 254 68 365q92 150 389 150t390 -150q68 -110 68 -370q0 -261 -68 -371q-93 -150 -389 -150q-297 0 -390 150q-68 110 -68 376zM232 1151l261 318h156l261 -318h-173l-166 201l-165 -201h-174zM301 495q0 -203 43 -280q50 -89 228 -89q177 0 227 89 q43 77 43 277q0 198 -43 276q-49 89 -227 89t-228 -89q-43 -77 -43 -273z" />
<glyph unicode="&#xf5;" horiz-adv-x="1142" vert-adv-y="2457" d="M114 497q0 254 68 365q92 150 389 150t390 -150q68 -110 68 -370q0 -261 -68 -371q-93 -150 -389 -150q-297 0 -390 150q-68 110 -68 376zM205 1199q47 253 231 253q51 0 101 -23q23 -10 67 -44q43 -34 62 -46q24 -15 47 -15q68 0 96 128h125q-46 -253 -233 -253 q-84 0 -168 68q-45 36 -59 45q-26 15 -49 15q-66 0 -96 -128h-124zM301 495q0 -203 43 -280q50 -89 228 -89q177 0 227 89q43 77 43 277q0 198 -43 276q-49 89 -227 89t-228 -89q-43 -77 -43 -273z" />
<glyph unicode="&#xf6;" horiz-adv-x="1142" vert-adv-y="2457" d="M114 497q0 254 68 365q92 150 389 150t390 -150q68 -110 68 -370q0 -261 -68 -371q-93 -150 -389 -150q-297 0 -390 150q-68 110 -68 376zM301 495q0 -203 43 -280q50 -89 228 -89q177 0 227 89q43 77 43 277q0 198 -43 276q-49 89 -227 89t-228 -89q-43 -77 -43 -273z M320 1219v207l188 12v-207zM635 1219v207l188 12v-207z" />
<glyph unicode="&#xf7;" vert-adv-y="2457" d="M148 575l12 147h912l-12 -147h-912zM515 195v205h191v-205h-191zM515 897v205h191v-205h-191z" />
<glyph unicode="&#xf8;" horiz-adv-x="1142" vert-adv-y="2457" d="M100 28l80 97q-66 108 -66 366q0 261 68 371q93 150 390 150q184 0 290 -57l73 89l108 -88l-80 -98q66 -112 66 -367q0 -260 -68 -370q-93 -150 -391 -150q-181 0 -286 56l-72 -88zM289 490q0 -127 19 -209l447 544q-67 37 -182 37q-186 0 -239 -92q-45 -78 -45 -280z M390 157q64 -37 181 -37q186 0 238 92q45 78 45 281q0 129 -18 209z" />
<glyph unicode="&#xf9;" horiz-adv-x="1133" vert-adv-y="2457" d="M155 337v646h181v-621q0 -139 19 -176q30 -61 134 -61q101 0 206 69q55 36 95 78v711h181v-983h-162l-9 101q-165 -131 -355 -131q-211 0 -265 138q-25 66 -25 229zM350 1482h220l103 -331h-130z" />
<glyph unicode="&#xfa;" horiz-adv-x="1133" vert-adv-y="2457" d="M155 337v646h181v-621q0 -139 19 -176q30 -61 134 -61q101 0 206 69q55 36 95 78v711h181v-983h-162l-9 101q-165 -131 -355 -131q-211 0 -265 138q-25 66 -25 229zM485 1151l103 331h220l-192 -331h-131z" />
<glyph unicode="&#xfb;" horiz-adv-x="1133" vert-adv-y="2457" d="M155 337v646h181v-621q0 -139 19 -176q30 -61 134 -61q101 0 206 69q55 36 95 78v711h181v-983h-162l-9 101q-165 -131 -355 -131q-211 0 -265 138q-25 66 -25 229zM228 1151l261 318h156l261 -318h-173l-166 201l-165 -201h-174z" />
<glyph unicode="&#xfc;" horiz-adv-x="1133" vert-adv-y="2457" d="M155 337v646h181v-621q0 -139 19 -176q30 -61 134 -61q101 0 206 69q55 36 95 78v711h181v-983h-162l-9 101q-165 -131 -355 -131q-211 0 -265 138q-25 66 -25 229zM315 1219v207l188 12v-207zM630 1219v207l188 12v-207z" />
<glyph unicode="&#xfd;" horiz-adv-x="1121" vert-adv-y="2457" d="M154 337v646h181v-621q0 -138 18 -174q30 -63 135 -63q140 0 288 132v726h181v-878q0 -185 -14 -289q-25 -185 -148 -262q-111 -70 -324 -70q-171 0 -312 42l24 163q147 -53 288 -53q224 0 277 126q27 63 27 234v84q-72 -45 -104 -62q-95 -48 -225 -48q-213 0 -266 138 q-26 66 -26 229zM486 1151l103 331h220l-192 -331h-131z" />
<glyph unicode="&#xfe;" horiz-adv-x="1142" vert-adv-y="2457" d="M163 -494v1990l181 13v-605q134 108 316 108q219 0 303 -139q65 -108 65 -379q0 -306 -86 -414q-87 -109 -282 -109q-178 0 -316 96v-561h-181zM344 236q44 -38 79 -60q79 -50 197 -50q83 0 126 23q62 35 82 141q14 80 14 205q0 199 -37 274q-43 88 -184 88 q-115 0 -194 -54q-37 -25 -83 -74v-493z" />
<glyph unicode="&#xff;" horiz-adv-x="1121" vert-adv-y="2457" d="M154 337v646h181v-621q0 -138 18 -174q30 -63 135 -63q140 0 288 132v726h181v-878q0 -185 -14 -289q-25 -185 -148 -262q-111 -70 -324 -70q-171 0 -312 42l24 163q147 -53 288 -53q224 0 277 126q27 63 27 234v84q-72 -45 -104 -62q-95 -48 -225 -48q-213 0 -266 138 q-26 66 -26 229zM304 1219v207l188 12v-207zM619 1219v207l188 12v-207z" />
<glyph unicode="&#x152;" horiz-adv-x="2111" vert-adv-y="2457" d="M132 703q0 373 113 541q131 192 472 192q198 0 303 -63q58 -34 112 -104v138h879l-16 -159h-695v-434h547l-16 -159h-531v-496h733l-14 -159h-887v138q-60 -73 -117 -107q-104 -60 -299 -60q-340 0 -471 193q-113 168 -113 539zM326 709q0 -295 62 -421q77 -157 333 -157 q161 0 246 57q100 67 128 231q20 115 20 284q0 288 -62 416q-47 97 -154 133q-70 24 -179 24q-255 0 -332 -157q-62 -127 -62 -410z" />
<glyph unicode="&#x153;" horiz-adv-x="1823" vert-adv-y="2457" d="M114 492q0 260 68 370q93 150 387 150q132 0 213 -28q57 -20 122 -88q19 -19 31 -40q35 57 66 83q92 75 286 75q324 0 398 -233q32 -104 32 -326h-694q6 -140 27 -200q27 -78 104 -108q62 -24 180 -24q159 0 325 48l21 -157q-178 -43 -363 -43q-147 0 -224 29 q-100 39 -158 128q-38 -69 -88 -99q-95 -58 -279 -58q-293 0 -386 151q-68 110 -68 370zM301 495q0 -202 43 -280q50 -89 228 -89q177 0 227 89q43 77 43 277q0 199 -43 276q-49 89 -227 89t-228 -89q-43 -77 -43 -273zM1025 587h512q-6 109 -32 170q-48 109 -224 109 q-166 0 -217 -96q-32 -62 -39 -183z" />
<glyph unicode="&#x178;" horiz-adv-x="1142" vert-adv-y="2457" d="M-17 1407h207l384 -713l386 713h200l-496 -872v-535h-184v535zM319 1579v207l188 12v-207zM634 1579v207l188 12v-207z" />
<glyph unicode="&#x2c6;" horiz-adv-x="947" vert-adv-y="2457" d="M134 1151l261 318h156l261 -318h-173l-166 201l-165 -201h-174z" />
<glyph unicode="&#x2dc;" horiz-adv-x="874" vert-adv-y="2457" d="M70 1199q47 253 231 253q51 0 101 -23q23 -10 67 -44q43 -34 62 -46q24 -15 47 -15q68 0 96 128h125q-46 -253 -233 -253q-84 0 -168 68q-45 36 -59 45q-26 15 -49 15q-66 0 -96 -128h-124z" />
<glyph unicode="&#x2000;" horiz-adv-x="954" vert-adv-y="0" />
<glyph unicode="&#x2001;" horiz-adv-x="1908" vert-adv-y="0" />
<glyph unicode="&#x2002;" horiz-adv-x="954" vert-adv-y="0" />
<glyph unicode="&#x2003;" horiz-adv-x="1908" vert-adv-y="0" />
<glyph unicode="&#x2004;" horiz-adv-x="636" vert-adv-y="0" />
<glyph unicode="&#x2005;" horiz-adv-x="477" vert-adv-y="0" />
<glyph unicode="&#x2006;" horiz-adv-x="318" vert-adv-y="0" />
<glyph unicode="&#x2007;" horiz-adv-x="318" vert-adv-y="0" />
<glyph unicode="&#x2008;" horiz-adv-x="238" vert-adv-y="0" />
<glyph unicode="&#x2009;" horiz-adv-x="381" vert-adv-y="0" />
<glyph unicode="&#x200a;" horiz-adv-x="106" vert-adv-y="0" />
<glyph unicode="&#x2010;" horiz-adv-x="678" vert-adv-y="2457" d="M68 572l13 154h528l-13 -154h-528z" />
<glyph unicode="&#x2011;" horiz-adv-x="678" vert-adv-y="2457" d="M68 572l13 154h528l-13 -154h-528z" />
<glyph unicode="&#x2012;" horiz-adv-x="678" vert-adv-y="2457" d="M68 572l13 154h528l-13 -154h-528z" />
<glyph unicode="&#x2013;" horiz-adv-x="1238" vert-adv-y="2457" d="M193 575l12 147h840l-13 -147h-839z" />
<glyph unicode="&#x2014;" vert-adv-y="2457" d="M-65 575v147h1350v-147h-1350z" />
<glyph unicode="&#x2018;" horiz-adv-x="382" vert-adv-y="2457" d="M52 965l107 501h149l-55 -501h-201z" />
<glyph unicode="&#x2019;" horiz-adv-x="383" vert-adv-y="2457" d="M75 965l54 501h202l-108 -501h-148z" />
<glyph unicode="&#x201a;" horiz-adv-x="383" vert-adv-y="2457" d="M75 -285l54 501h202l-108 -501h-148z" />
<glyph unicode="&#x201c;" horiz-adv-x="694" vert-adv-y="2457" d="M52 965l107 501h146l-54 -501h-199zM366 965l107 501h146l-54 -501h-199z" />
<glyph unicode="&#x201d;" horiz-adv-x="695" vert-adv-y="2457" d="M75 965l54 501h199l-107 -501h-146zM389 965l55 501h198l-107 -501h-146z" />
<glyph unicode="&#x201e;" horiz-adv-x="695" vert-adv-y="2457" d="M75 -286l54 501h199l-107 -501h-146zM389 -286l55 501h198l-107 -501h-146z" />
<glyph unicode="&#x2022;" vert-adv-y="2457" d="M366 389v520h489v-520h-489z" />
<glyph unicode="&#x2026;" horiz-adv-x="1793" vert-adv-y="2457" d="M187 0v227h215v-227h-215zM790 0v227h215v-227h-215zM1391 0v227h215v-227h-215z" />
<glyph unicode="&#x202f;" horiz-adv-x="381" vert-adv-y="0" />
<glyph unicode="&#x2039;" horiz-adv-x="508" vert-adv-y="2457" d="M54 564v45l306 344l94 -72l-201 -295l201 -294l-94 -72z" />
<glyph unicode="&#x203a;" horiz-adv-x="508" vert-adv-y="2457" d="M54 292l201 295l-201 294l94 72l306 -344v-45l-306 -344z" />
<glyph unicode="&#x205f;" horiz-adv-x="477" vert-adv-y="0" />
<glyph unicode="&#x20ac;" vert-adv-y="2457" d="M58 721l47 118h140q25 265 123 409q128 188 453 188q161 0 296 -47l-20 -168q-121 55 -274 55q-240 0 -318 -153q-57 -110 -72 -284h555l-48 -118h-512v-55q1 -42 2 -68h471l-43 -118h-417q20 -137 60 -207q82 -141 327 -141q157 0 289 58l21 -169q-138 -50 -310 -50 q-340 0 -467 181q-83 119 -110 328h-190l45 118h135q-2 49 -2 73v50h-181z" />
<glyph unicode="&#x2122;" horiz-adv-x="1630" vert-adv-y="2457" d="M28 1287v120h606v-120h-230v-557h-146v557h-230zM693 730l54 677h155l192 -495l193 495h157l51 -677h-141l-31 445l-175 -445h-111l-174 444l-31 -444h-139z" />
<glyph unicode="&#x25fc;" horiz-adv-x="985" vert-adv-y="1970" d="M0 0v985h985v-985h-985z" />
</font>
</defs>
</svg>
